solid 
 facet normal  0.000000e+00 -1.000000e+00  0.000000e+00
   outer loop
     vertex  1.599585e+00  0.000000e+00  8.000000e+00
     vertex  3.000000e+00  0.000000e+00  1.000000e+01
     vertex  0.000000e+00  0.000000e+00  1.000000e+01
   endloop
 endfacet
 facet normal  0.000000e+00 -1.000000e+00  0.000000e+00
   outer loop
     vertex  0.000000e+00  0.000000e+00  0.000000e+00
     vertex  1.599585e+00  0.000000e+00  8.000000e+00
     vertex  0.000000e+00  0.000000e+00  1.000000e+01
   endloop
 endfacet
 facet normal  0.000000e+00 -1.000000e+00  0.000000e+00
   outer loop
     vertex  2.340042e+01  0.000000e+00  8.000000e+00
     vertex  2.500000e+01  0.000000e+00  1.000000e+01
     vertex  2.200000e+01  0.000000e+00  1.000000e+01
   endloop
 endfacet
 facet normal -0.000000e+00 -1.000000e+00  0.000000e+00
   outer loop
     vertex  2.340042e+01  0.000000e+00  8.000000e+00
     vertex  1.599585e+00  0.000000e+00  8.000000e+00
     vertex  0.000000e+00  0.000000e+00  0.000000e+00
   endloop
 endfacet
 facet normal  0.000000e+00 -1.000000e+00  0.000000e+00
   outer loop
     vertex  2.500000e+01  0.000000e+00  0.000000e+00
     vertex  2.500000e+01  0.000000e+00  1.000000e+01
     vertex  2.340042e+01  0.000000e+00  8.000000e+00
   endloop
 endfacet
 facet normal  0.000000e+00 -1.000000e+00  0.000000e+00
   outer loop
     vertex  2.500000e+01  0.000000e+00  0.000000e+00
     vertex  2.340042e+01  0.000000e+00  8.000000e+00
     vertex  0.000000e+00  0.000000e+00  0.000000e+00
   endloop
 endfacet
 facet normal  0.000000e+00 -0.000000e+00 -1.000000e+00
   outer loop
     vertex  2.500000e+01  2.500000e+01  0.000000e+00
     vertex  2.500000e+01  0.000000e+00  0.000000e+00
     vertex  0.000000e+00  0.000000e+00  0.000000e+00
   endloop
 endfacet
 facet normal -0.000000e+00  0.000000e+00 -1.000000e+00
   outer loop
     vertex  2.500000e+01  2.500000e+01  0.000000e+00
     vertex  0.000000e+00  0.000000e+00  0.000000e+00
     vertex  0.000000e+00  2.500000e+01  0.000000e+00
   endloop
 endfacet
 facet normal  1.000000e+00  0.000000e+00  0.000000e+00
   outer loop
     vertex  2.500000e+01  2.500000e+01  0.000000e+00
     vertex  2.500000e+01  0.000000e+00  1.000000e+01
     vertex  2.500000e+01  0.000000e+00  0.000000e+00
   endloop
 endfacet
 facet normal  1.000000e+00  0.000000e+00 -0.000000e+00
   outer loop
     vertex  2.500000e+01  2.500000e+01  0.000000e+00
     vertex  2.500000e+01  2.500000e+01  1.000000e+01
     vertex  2.500000e+01  0.000000e+00  1.000000e+01
   endloop
 endfacet
 facet normal  0.000000e+00  0.000000e+00  1.000000e+00
   outer loop
     vertex  3.000000e+00  2.200000e+01  1.000000e+01
     vertex  0.000000e+00  0.000000e+00  1.000000e+01
     vertex  3.000000e+00  0.000000e+00  1.000000e+01
   endloop
 endfacet
 facet normal  0.000000e+00  0.000000e+00  1.000000e+00
   outer loop
     vertex  0.000000e+00  2.500000e+01  1.000000e+01
     vertex  0.000000e+00  0.000000e+00  1.000000e+01
     vertex  3.000000e+00  2.200000e+01  1.000000e+01
   endloop
 endfacet
 facet normal  0.000000e+00  0.000000e+00  1.000000e+00
   outer loop
     vertex  2.200000e+01  2.200000e+01  1.000000e+01
     vertex  2.200000e+01  0.000000e+00  1.000000e+01
     vertex  2.500000e+01  0.000000e+00  1.000000e+01
   endloop
 endfacet
 facet normal  0.000000e+00  0.000000e+00  1.000000e+00
   outer loop
     vertex  2.500000e+01  2.500000e+01  1.000000e+01
     vertex  2.200000e+01  2.200000e+01  1.000000e+01
     vertex  2.500000e+01  0.000000e+00  1.000000e+01
   endloop
 endfacet
 facet normal  0.000000e+00  0.000000e+00  1.000000e+00
   outer loop
     vertex  2.500000e+01  2.500000e+01  1.000000e+01
     vertex  0.000000e+00  2.500000e+01  1.000000e+01
     vertex  3.000000e+00  2.200000e+01  1.000000e+01
   endloop
 endfacet
 facet normal  0.000000e+00  0.000000e+00  1.000000e+00
   outer loop
     vertex  2.500000e+01  2.500000e+01  1.000000e+01
     vertex  3.000000e+00  2.200000e+01  1.000000e+01
     vertex  2.200000e+01  2.200000e+01  1.000000e+01
   endloop
 endfacet
 facet normal -8.191520e-01  0.000000e+00 -5.735764e-01
   outer loop
     vertex  2.200000e+01  0.000000e+00  1.000000e+01
     vertex  2.340042e+01  2.200000e+01  8.000000e+00
     vertex  2.340042e+01  0.000000e+00  8.000000e+00
   endloop
 endfacet
 facet normal -8.191520e-01  1.322824e-16 -5.735764e-01
   outer loop
     vertex  2.200000e+01  0.000000e+00  1.000000e+01
     vertex  2.200000e+01  2.200000e+01  1.000000e+01
     vertex  2.340042e+01  2.200000e+01  8.000000e+00
   endloop
 endfacet
 facet normal  0.000000e+00 -0.000000e+00  1.000000e+00
   outer loop
     vertex  3.000000e+00  3.000000e+00  8.000000e+00
     vertex  3.000000e+00  2.200000e+01  8.000000e+00
     vertex  1.599585e+00  2.200000e+01  8.000000e+00
   endloop
 endfacet
 facet normal  0.000000e+00  0.000000e+00  1.000000e+00
   outer loop
     vertex  1.599585e+00  0.000000e+00  8.000000e+00
     vertex  3.000000e+00  3.000000e+00  8.000000e+00
     vertex  1.599585e+00  2.200000e+01  8.000000e+00
   endloop
 endfacet
 facet normal  0.000000e+00  0.000000e+00  1.000000e+00
   outer loop
     vertex  2.200000e+01  3.000000e+00  8.000000e+00
     vertex  2.340042e+01  2.200000e+01  8.000000e+00
     vertex  2.200000e+01  2.200000e+01  8.000000e+00
   endloop
 endfacet
 facet normal  0.000000e+00  0.000000e+00  1.000000e+00
   outer loop
     vertex  2.340042e+01  0.000000e+00  8.000000e+00
     vertex  2.200000e+01  3.000000e+00  8.000000e+00
     vertex  3.000000e+00  3.000000e+00  8.000000e+00
   endloop
 endfacet
 facet normal  0.000000e+00 -0.000000e+00  1.000000e+00
   outer loop
     vertex  2.340042e+01  0.000000e+00  8.000000e+00
     vertex  2.340042e+01  2.200000e+01  8.000000e+00
     vertex  2.200000e+01  3.000000e+00  8.000000e+00
   endloop
 endfacet
 facet normal  0.000000e+00  0.000000e+00  1.000000e+00
   outer loop
     vertex  2.340042e+01  0.000000e+00  8.000000e+00
     vertex  3.000000e+00  3.000000e+00  8.000000e+00
     vertex  1.599585e+00  0.000000e+00  8.000000e+00
   endloop
 endfacet
 facet normal  8.191520e-01  0.000000e+00 -5.735764e-01
   outer loop
     vertex  1.599585e+00  0.000000e+00  8.000000e+00
     vertex  3.000000e+00  2.200000e+01  1.000000e+01
     vertex  3.000000e+00  0.000000e+00  1.000000e+01
   endloop
 endfacet
 facet normal  8.191520e-01  0.000000e+00 -5.735764e-01
   outer loop
     vertex  1.599585e+00  0.000000e+00  8.000000e+00
     vertex  1.599585e+00  2.200000e+01  8.000000e+00
     vertex  3.000000e+00  2.200000e+01  1.000000e+01
   endloop
 endfacet
 facet normal -1.000000e+00  0.000000e+00  0.000000e+00
   outer loop
     vertex  0.000000e+00  0.000000e+00  0.000000e+00
     vertex  0.000000e+00  2.500000e+01  1.000000e+01
     vertex  0.000000e+00  2.500000e+01  0.000000e+00
   endloop
 endfacet
 facet normal -1.000000e+00  0.000000e+00  0.000000e+00
   outer loop
     vertex  0.000000e+00  0.000000e+00  0.000000e+00
     vertex  0.000000e+00  0.000000e+00  1.000000e+01
     vertex  0.000000e+00  2.500000e+01  1.000000e+01
   endloop
 endfacet
 facet normal  0.000000e+00  1.000000e+00  0.000000e+00
   outer loop
     vertex  0.000000e+00  2.500000e+01  0.000000e+00
     vertex  2.500000e+01  2.500000e+01  1.000000e+01
     vertex  2.500000e+01  2.500000e+01  0.000000e+00
   endloop
 endfacet
 facet normal  0.000000e+00  1.000000e+00  0.000000e+00
   outer loop
     vertex  0.000000e+00  2.500000e+01  0.000000e+00
     vertex  0.000000e+00  2.500000e+01  1.000000e+01
     vertex  2.500000e+01  2.500000e+01  1.000000e+01
   endloop
 endfacet
 facet normal  0.000000e+00 -1.000000e+00  0.000000e+00
   outer loop
     vertex  2.200000e+01  2.200000e+01  8.000000e+00
     vertex  2.340042e+01  2.200000e+01  8.000000e+00
     vertex  2.200000e+01  2.200000e+01  1.000000e+01
   endloop
 endfacet
 facet normal  0.000000e+00 -1.000000e+00  0.000000e+00
   outer loop
     vertex  3.000000e+00  2.200000e+01  8.000000e+00
     vertex  2.200000e+01  2.200000e+01  1.000000e+01
     vertex  3.000000e+00  2.200000e+01  1.000000e+01
   endloop
 endfacet
 facet normal  0.000000e+00 -1.000000e+00  0.000000e+00
   outer loop
     vertex  3.000000e+00  2.200000e+01  8.000000e+00
     vertex  2.200000e+01  2.200000e+01  3.000000e+00
     vertex  2.200000e+01  2.200000e+01  8.000000e+00
   endloop
 endfacet
 facet normal  0.000000e+00 -1.000000e+00  0.000000e+00
   outer loop
     vertex  3.000000e+00  2.200000e+01  8.000000e+00
     vertex  2.200000e+01  2.200000e+01  8.000000e+00
     vertex  2.200000e+01  2.200000e+01  1.000000e+01
   endloop
 endfacet
 facet normal  0.000000e+00 -1.000000e+00  0.000000e+00
   outer loop
     vertex  1.599585e+00  2.200000e+01  8.000000e+00
     vertex  3.000000e+00  2.200000e+01  8.000000e+00
     vertex  3.000000e+00  2.200000e+01  1.000000e+01
   endloop
 endfacet
 facet normal  0.000000e+00 -1.000000e+00  0.000000e+00
   outer loop
     vertex  3.000000e+00  2.200000e+01  3.000000e+00
     vertex  2.200000e+01  2.200000e+01  3.000000e+00
     vertex  3.000000e+00  2.200000e+01  8.000000e+00
   endloop
 endfacet
 facet normal -1.000000e+00  0.000000e+00  0.000000e+00
   outer loop
     vertex  2.200000e+01  2.200000e+01  3.000000e+00
     vertex  2.200000e+01  3.000000e+00  3.000000e+00
     vertex  2.200000e+01  3.000000e+00  8.000000e+00
   endloop
 endfacet
 facet normal -1.000000e+00  0.000000e+00  0.000000e+00
   outer loop
     vertex  2.200000e+01  2.200000e+01  3.000000e+00
     vertex  2.200000e+01  3.000000e+00  8.000000e+00
     vertex  2.200000e+01  2.200000e+01  8.000000e+00
   endloop
 endfacet
 facet normal  0.000000e+00  1.000000e+00  0.000000e+00
   outer loop
     vertex  2.200000e+01  3.000000e+00  3.000000e+00
     vertex  3.000000e+00  3.000000e+00  3.000000e+00
     vertex  3.000000e+00  3.000000e+00  8.000000e+00
   endloop
 endfacet
 facet normal  0.000000e+00  1.000000e+00 -0.000000e+00
   outer loop
     vertex  2.200000e+01  3.000000e+00  3.000000e+00
     vertex  3.000000e+00  3.000000e+00  8.000000e+00
     vertex  2.200000e+01  3.000000e+00  8.000000e+00
   endloop
 endfacet
 facet normal  1.000000e+00  0.000000e+00  0.000000e+00
   outer loop
     vertex  3.000000e+00  3.000000e+00  3.000000e+00
     vertex  3.000000e+00  2.200000e+01  3.000000e+00
     vertex  3.000000e+00  2.200000e+01  8.000000e+00
   endloop
 endfacet
 facet normal  1.000000e+00  0.000000e+00  0.000000e+00
   outer loop
     vertex  3.000000e+00  3.000000e+00  3.000000e+00
     vertex  3.000000e+00  2.200000e+01  8.000000e+00
     vertex  3.000000e+00  3.000000e+00  8.000000e+00
   endloop
 endfacet
 facet normal  0.000000e+00  0.000000e+00  1.000000e+00
   outer loop
     vertex  2.200000e+01  2.200000e+01  3.000000e+00
     vertex  3.000000e+00  3.000000e+00  3.000000e+00
     vertex  2.200000e+01  3.000000e+00  3.000000e+00
   endloop
 endfacet
 facet normal  0.000000e+00  0.000000e+00  1.000000e+00
   outer loop
     vertex  2.200000e+01  2.200000e+01  3.000000e+00
     vertex  3.000000e+00  2.200000e+01  3.000000e+00
     vertex  3.000000e+00  3.000000e+00  3.000000e+00
   endloop
 endfacet
endsolid
